<?xml version="1.0" standalone="no"?>
<!DOCTYPE svg PUBLIC "-//W3C//DTD SVG 20010904//EN"
 "http://www.w3.org/TR/2001/REC-SVG-20010904/DTD/svg10.dtd">
<svg version="1.0" xmlns="http://www.w3.org/2000/svg"
 width="300.000000pt" height="300.000000pt" viewBox="0 0 300.000000 300.000000"
 preserveAspectRatio="xMidYMid meet">
<metadata>
Created by potrace 1.14, written by Peter Selinger 2001-2017
</metadata>
<g transform="translate(0.000000,300.000000) scale(0.100000,-0.100000)"
fill="#000000" stroke="none">
<path d="M1385 2982 c-3 -3 -36 -8 -120 -17 -16 -2 -30 -4 -30 -5 0 -1 -18 -4
-39 -6 -21 -3 -47 -9 -57 -15 -11 -5 -19 -7 -19 -3 0 3 -7 1 -15 -6 -9 -7 -18
-10 -22 -7 -3 4 -15 1 -27 -5 -24 -14 -21 -13 -63 -23 -18 -4 -33 -11 -33 -16
0 -5 -7 -6 -15 -3 -8 4 -15 1 -15 -5 0 -6 -6 -11 -13 -11 -7 0 -29 -9 -50 -20
-20 -11 -43 -20 -51 -20 -8 0 -20 -8 -25 -17 -6 -10 -11 -14 -11 -9 0 4 -15
-2 -32 -16 -18 -13 -45 -29 -59 -37 -14 -7 -39 -24 -55 -37 -33 -27 -38 -31
-79 -62 -36 -28 -166 -152 -159 -152 3 0 -13 -18 -35 -40 -22 -22 -36 -40 -33
-40 4 0 -2 -7 -12 -15 -11 -8 -16 -15 -12 -15 7 0 -7 -20 -55 -77 -5 -7 -6
-13 -2 -13 4 0 -1 -7 -11 -15 -11 -8 -16 -15 -12 -15 4 0 -1 -12 -12 -27 -18
-26 -92 -176 -97 -198 -1 -5 -7 -21 -12 -35 -6 -14 -9 -28 -6 -32 2 -5 -1 -8
-8 -8 -7 0 -10 -3 -6 -6 3 -3 -1 -24 -9 -46 -7 -21 -13 -42 -12 -46 1 -4 -1
-14 -4 -22 -11 -28 -29 -135 -31 -177 -1 -24 -4 -43 -7 -43 -7 0 -3 -231 5
-305 4 -33 11 -68 17 -78 8 -15 7 -18 -3 -12 -8 6 -10 4 -3 -6 9 -15 12 -29
16 -66 1 -13 5 -23 8 -23 3 0 7 -12 8 -26 1 -15 7 -33 13 -40 6 -8 9 -14 5
-14 -3 0 1 -19 10 -42 31 -82 43 -107 128 -275 6 -13 14 -23 19 -23 4 0 7 -6
7 -14 0 -7 7 -19 15 -26 9 -7 13 -15 11 -17 -3 -3 8 -18 24 -33 16 -15 27 -30
25 -32 -3 -2 18 -28 45 -57 28 -30 50 -55 50 -57 0 -9 80 -81 85 -76 3 3 5 -2
5 -11 0 -10 3 -16 8 -15 6 2 19 -7 75 -56 12 -10 47 -35 77 -54 30 -19 58 -40
62 -46 4 -6 8 -7 8 -2 0 5 9 1 20 -9 11 -10 20 -14 20 -9 0 5 4 4 8 -2 10 -14
92 -56 92 -46 0 4 4 2 8 -4 6 -9 34 -21 137 -60 11 -4 31 -9 45 -11 13 -2 29
-8 35 -13 6 -5 26 -10 43 -12 18 -1 32 -6 32 -11 0 -4 3 -6 8 -3 4 2 30 0 57
-6 28 -5 67 -10 87 -12 21 -1 39 -4 42 -6 9 -9 341 1 354 11 3 2 10 4 67 14
53 9 64 11 68 15 1 1 11 3 21 5 11 2 31 7 45 11 14 4 29 7 34 6 4 -1 7 2 7 6
0 5 6 9 13 10 22 2 42 8 63 20 12 6 24 8 28 5 3 -3 6 -1 6 5 0 7 3 12 8 11 15
-2 52 14 52 23 0 5 5 6 11 2 6 -3 14 -3 18 2 3 5 31 22 61 38 30 16 65 38 78
49 12 11 22 17 22 13 0 -4 7 -1 15 6 34 31 43 36 49 31 3 -4 6 1 6 11 0 9 4
15 8 12 5 -3 29 14 55 38 25 24 48 41 51 38 3 -3 6 3 6 13 0 10 3 16 6 12 3
-3 24 14 45 39 21 25 39 42 39 37 0 -4 10 7 21 24 12 18 25 33 30 33 5 0 9 4
9 10 0 9 19 36 48 66 7 8 10 14 5 14 -4 0 0 5 10 11 9 6 15 14 12 20 -4 5 -1
9 4 9 6 0 11 6 11 14 0 8 7 17 16 20 9 4 14 9 11 13 -4 3 2 18 12 32 23 32 66
123 63 134 -1 4 2 7 7 7 5 0 12 14 16 30 4 17 13 44 21 60 9 16 16 39 17 50 1
11 4 20 7 20 4 0 7 6 8 13 1 19 11 64 20 89 5 13 8 30 7 38 0 8 4 18 10 22 6
5 5 8 -3 8 -8 0 -10 5 -5 13 4 6 9 21 10 32 9 63 12 75 18 84 3 6 0 11 -7 11
-8 0 -9 3 -3 8 14 10 10 312 -4 312 -3 0 -7 17 -8 38 -2 56 -7 82 -13 82 -3 0
-6 10 -7 23 -1 28 -7 49 -28 112 -10 28 -18 55 -19 60 -2 6 -11 28 -21 50 -10
22 -19 46 -21 53 -1 8 -11 23 -21 35 -10 11 -12 17 -4 12 14 -8 -16 45 -32 56
-5 3 -9 10 -9 15 -2 23 -11 43 -17 40 -4 -3 -13 10 -21 27 -7 18 -19 37 -24
43 -6 6 -18 22 -26 34 -8 12 -21 28 -27 36 -7 7 -13 18 -13 24 0 6 -4 8 -10 5
-5 -3 -10 -1 -10 5 0 10 -27 41 -103 121 -15 16 -30 29 -32 29 -3 0 -18 12
-33 28 -35 35 -132 107 -154 115 -10 4 -18 11 -18 17 0 6 -4 8 -10 5 -5 -3
-10 -2 -10 3 0 12 -202 111 -285 140 -16 6 -39 14 -50 18 -28 10 -26 10 -70
19 -22 4 -43 13 -47 19 -5 8 -8 7 -8 -2 0 -9 -5 -10 -19 -3 -10 6 -21 7 -25 4
-3 -3 -6 -2 -6 3 0 9 -42 15 -127 18 -24 0 -43 3 -43 6 0 6 -219 7 -225 2z"/>
</g>
</svg>
